<svg width="32" height="32" viewBox="0 0 32 32" fill="none" xmlns="http://www.w3.org/2000/svg">
<rect width="32" height="32" rx="16" fill="black" fill-opacity="0.01"/>
<path d="M20.5455 14.8745H20.5163V12.8868C20.5163 10.4168 18.514 8.3999 16.0294 8.3999H15.8541C13.8664 8.47298 12.2441 9.89067 11.7325 11.7322C11.5572 12.3607 12.0394 12.9745 12.6971 12.9745C13.1356 12.9745 13.501 12.6676 13.6179 12.2583C13.8956 11.2645 14.7287 10.4899 15.8102 10.3876C15.8979 10.3876 15.971 10.373 16.0441 10.373C17.4325 10.373 18.5579 11.4983 18.5579 12.8868V14.8891L11.4548 14.8892C10.7971 14.8892 10.271 15.4153 10.271 16.073V22.4161C10.271 23.0738 10.7971 23.5999 11.4548 23.5999H20.5456C21.2033 23.5999 21.7294 23.0738 21.7294 22.4161V16.0584C21.7294 15.4153 21.2032 14.8745 20.5455 14.8745ZM16.8771 20.6183C16.9063 20.7499 16.804 20.8814 16.6579 20.8814H15.3279C15.1817 20.8814 15.0794 20.7499 15.1086 20.6183L15.3571 19.3614C15.1086 19.1422 14.9625 18.8207 15.0209 18.4553C15.094 18.0314 15.4447 17.6953 15.8832 17.6368H16.0001C16.5409 17.6368 16.9794 18.0753 16.9794 18.6161C16.9794 18.923 16.8332 19.2007 16.614 19.376L16.8771 20.6183Z" fill="#C9A74E"/>
</svg>
