<svg width="32" height="32" viewBox="0 0 32 32" fill="none" xmlns="http://www.w3.org/2000/svg">
<rect width="32" height="32" rx="16" fill="black" fill-opacity="0.01"/>
<path d="M17.8725 12.7605C17.8725 14.6532 16.3382 16.1874 14.4455 16.1874C12.5529 16.1874 11.0186 14.6532 11.0186 12.7605C11.0186 10.8678 12.5529 9.3335 14.4455 9.3335C16.3382 9.3335 17.8725 10.8678 17.8725 12.7605Z" fill="#C9A74E"/>
<path d="M9.33447 20.6663C9.33447 18.8254 10.8269 17.333 12.6678 17.333H16.2265C18.0674 17.333 19.5598 18.8254 19.5598 20.6663V21.333C19.5598 22.0694 18.9628 22.6663 18.2265 22.6663H10.6678C9.93143 22.6663 9.33447 22.0694 9.33447 21.333V20.6663Z" fill="#C9A74E"/>
<path d="M17.8187 15.6297C17.6703 15.8039 17.7105 16.0785 17.9287 16.1477C18.1905 16.2308 18.4693 16.2756 18.7586 16.2756C20.2727 16.2756 21.5002 15.0481 21.5002 13.534C21.5002 12.0199 20.2727 10.7925 18.7586 10.7925C18.5945 10.7925 18.4993 10.9669 18.5601 11.1193C18.7628 11.6268 18.8743 12.1806 18.8743 12.7604C18.8743 13.8551 18.477 14.8569 17.8187 15.6297Z" fill="#C9A74E"/>
<path d="M20.5598 20.874C20.5598 21.0581 20.709 21.2073 20.8931 21.2073H22.0012C22.3694 21.2073 22.6679 20.9089 22.6679 20.5407V19.5255C22.6679 18.2368 21.6232 17.1921 20.3345 17.1921H19.8202C19.4995 17.1921 19.3385 17.634 19.5448 17.8795C20.1783 18.6329 20.5598 19.6051 20.5598 20.6664V20.874Z" fill="#C9A74E"/>
</svg>
