<svg width="32" height="32" viewBox="0 0 32 32" fill="none" xmlns="http://www.w3.org/2000/svg">
<rect width="32" height="32" rx="16" fill="black" fill-opacity="0.01"/>
<path d="M11.2327 14.7176H10.756V13.7715C10.756 13.6969 10.7264 13.6254 10.6736 13.5726C10.6209 13.5199 10.5494 13.4902 10.4748 13.4902C10.4002 13.4902 10.3286 13.5199 10.2759 13.5726C10.2231 13.6254 10.1935 13.6969 10.1935 13.7715V14.7176H9.7168C9.56775 14.718 9.42493 14.7774 9.31953 14.8828C9.21414 14.9882 9.15473 15.131 9.1543 15.2801V22.0835C9.15428 22.1574 9.16881 22.2305 9.19707 22.2988C9.22534 22.367 9.26677 22.4291 9.31901 22.4813C9.37124 22.5335 9.43326 22.575 9.50151 22.6032C9.56977 22.6315 9.64292 22.646 9.7168 22.646H10.1935V23.5938C10.1946 23.6677 10.2247 23.7382 10.2774 23.79C10.33 23.8419 10.4009 23.8709 10.4748 23.8709C10.5487 23.8709 10.6196 23.8418 10.6722 23.79C10.7248 23.7381 10.7549 23.6677 10.756 23.5938V22.646H11.2327C11.3066 22.646 11.3798 22.6315 11.448 22.6032C11.5163 22.575 11.5783 22.5335 11.6305 22.4813C11.6828 22.4291 11.7242 22.367 11.7525 22.2988C11.7807 22.2305 11.7953 22.1574 11.7952 22.0835V15.2801C11.7948 15.131 11.7354 14.9882 11.63 14.8828C11.5246 14.7774 11.3818 14.718 11.2327 14.7176Z" fill="#C9A74E"/>
<path d="M14.9169 11.2299H14.4421V10.2837C14.4421 10.2091 14.4125 10.1376 14.3597 10.0848C14.307 10.0321 14.2354 10.0024 14.1608 10.0024C14.0862 10.0024 14.0147 10.0321 13.962 10.0848C13.9092 10.1376 13.8796 10.2091 13.8796 10.2837V11.2299H13.4038C13.2548 11.2303 13.1119 11.2897 13.0065 11.3951C12.9011 11.5005 12.8417 11.6433 12.8413 11.7924V18.5958C12.8413 18.6697 12.8558 18.7428 12.8841 18.8111C12.9123 18.8793 12.9538 18.9414 13.006 18.9936C13.0583 19.0458 13.1203 19.0873 13.1885 19.1155C13.2568 19.1438 13.3299 19.1583 13.4038 19.1583H13.8796V20.106C13.8807 20.1799 13.9108 20.2504 13.9634 20.3022C14.0161 20.3541 14.087 20.3831 14.1608 20.3831C14.2347 20.3831 14.3056 20.3541 14.3583 20.3022C14.4109 20.2503 14.441 20.1799 14.4421 20.106V19.1583H14.9169C14.9909 19.1586 15.0641 19.1442 15.1325 19.116C15.2009 19.0878 15.263 19.0464 15.3153 18.9941C15.3675 18.9418 15.409 18.8797 15.4371 18.8114C15.4653 18.743 15.4797 18.6698 15.4794 18.5958V11.7924C15.4795 11.7185 15.4649 11.6453 15.4367 11.5771C15.4084 11.5088 15.367 11.4468 15.3147 11.3946C15.2625 11.3423 15.2005 11.3009 15.1322 11.2726C15.064 11.2444 14.9908 11.2299 14.9169 11.2299Z" fill="#C9A74E"/>
<path d="M18.5996 13.1903H18.1238V12.2432C18.1238 12.1686 18.0941 12.097 18.0414 12.0443C17.9887 11.9915 17.9171 11.9619 17.8425 11.9619C17.7679 11.9619 17.6964 11.9915 17.6436 12.0443C17.5909 12.097 17.5613 12.1686 17.5613 12.2432V13.1903H17.0864C17.0126 13.1902 16.9394 13.2048 16.8711 13.233C16.8029 13.2613 16.7409 13.3027 16.6886 13.355C16.6364 13.4072 16.595 13.4692 16.5667 13.5375C16.5384 13.6057 16.5239 13.6789 16.5239 13.7528V20.5562C16.5239 20.6301 16.5384 20.7032 16.5667 20.7715C16.595 20.8397 16.6364 20.9017 16.6886 20.954C16.7409 21.0062 16.8029 21.0477 16.8711 21.0759C16.9394 21.1042 17.0126 21.1187 17.0864 21.1187H17.5613V22.0655C17.5624 22.1394 17.5925 22.2098 17.6451 22.2617C17.6977 22.3135 17.7687 22.3426 17.8425 22.3426C17.9164 22.3426 17.9873 22.3135 18.0399 22.2617C18.0926 22.2098 18.1227 22.1393 18.1238 22.0655V21.1187H18.5996C18.7486 21.1183 18.8914 21.0589 18.9968 20.9535C19.1022 20.8481 19.1616 20.7052 19.1621 20.5562V13.7528C19.1616 13.6037 19.1022 13.4609 18.9968 13.3555C18.8914 13.2501 18.7486 13.1907 18.5996 13.1903Z" fill="#C9A74E"/>
<path d="M22.285 9.35406H21.8083V8.40625C21.8083 8.33166 21.7786 8.26012 21.7259 8.20738C21.6731 8.15463 21.6016 8.125 21.527 8.125C21.4524 8.125 21.3809 8.15463 21.3281 8.20738C21.2754 8.26012 21.2458 8.33166 21.2458 8.40625V9.35406H20.769C20.6952 9.35404 20.622 9.36858 20.5538 9.39684C20.4855 9.4251 20.4235 9.46653 20.3712 9.51877C20.319 9.57101 20.2776 9.63302 20.2493 9.70128C20.2211 9.76953 20.2065 9.84269 20.2065 9.91656V16.72C20.207 16.8691 20.2664 17.0119 20.3718 17.1173C20.4772 17.2227 20.62 17.2821 20.769 17.2825H21.2458V18.2286C21.2469 18.3024 21.277 18.3729 21.3296 18.4248C21.3822 18.4766 21.4531 18.5057 21.527 18.5057C21.6009 18.5057 21.6718 18.4766 21.7244 18.4248C21.7771 18.3729 21.8072 18.3024 21.8083 18.2286V17.2825H22.285C22.434 17.2821 22.5768 17.2227 22.6822 17.1173C22.7876 17.0119 22.847 16.8691 22.8475 16.72V9.91656C22.8475 9.84269 22.833 9.76953 22.8047 9.70128C22.7764 9.63303 22.735 9.57101 22.6828 9.51877C22.6305 9.46653 22.5685 9.4251 22.5003 9.39684C22.432 9.36858 22.3589 9.35404 22.285 9.35406Z" fill="#C9A74E"/>
</svg>
