<svg width="32" height="32" viewBox="0 0 32 32" fill="none" xmlns="http://www.w3.org/2000/svg">
<rect width="32" height="32" rx="16" fill="black" fill-opacity="0.01"/>
<path d="M15.9973 8.07861C16.1016 8.07861 16.186 7.99422 16.186 7.88993V7.32076C16.186 7.21647 16.1016 7.13208 15.9973 7.13208C15.893 7.13208 15.8086 7.21647 15.8086 7.32076V7.88993C15.8086 7.99422 15.893 8.07861 15.9973 8.07861Z" fill="#C9A74E"/>
<path d="M15.9973 23.9214C15.893 23.9214 15.8086 24.0058 15.8086 24.1101V24.6792C15.8086 24.7835 15.893 24.8679 15.9973 24.8679C16.1016 24.8679 16.186 24.7835 16.186 24.6792V24.1101C16.186 24.0058 16.1016 23.9214 15.9973 23.9214Z" fill="#C9A74E"/>
<path d="M10.1296 10.3985C10.1664 10.4354 10.2147 10.4538 10.263 10.4538C10.3112 10.4538 10.3595 10.4354 10.3964 10.3985C10.4701 10.3248 10.4701 10.2054 10.3964 10.1317L9.99396 9.72911C9.92025 9.6554 9.80085 9.6554 9.72715 9.72911C9.65345 9.80281 9.65345 9.92221 9.72715 9.99591L10.1296 10.3985Z" fill="#C9A74E"/>
<path d="M21.869 21.6014C21.7953 21.5277 21.6759 21.5277 21.6022 21.6014C21.5284 21.6751 21.5284 21.7945 21.6022 21.8682L22.0046 22.2706C22.0414 22.3075 22.0897 22.3259 22.138 22.3259C22.1862 22.3259 22.2345 22.3075 22.2714 22.2706C22.3451 22.1969 22.3451 22.0775 22.2714 22.0038L21.869 21.6014Z" fill="#C9A74E"/>
<path d="M7.89048 15.8113H7.32149C7.2172 15.8113 7.13281 15.8957 7.13281 16C7.13281 16.1042 7.2172 16.1886 7.32149 16.1886H7.89048C7.99477 16.1886 8.07916 16.1042 8.07916 16C8.07916 15.8957 7.99477 15.8113 7.89048 15.8113Z" fill="#C9A74E"/>
<path d="M24.6799 15.8113H24.1106C24.0063 15.8113 23.9219 15.8957 23.9219 16C23.9219 16.1042 24.0063 16.1886 24.1106 16.1886H24.6799C24.7842 16.1886 24.8686 16.1042 24.8686 16C24.8686 15.8957 24.7842 15.8113 24.6799 15.8113Z" fill="#C9A74E"/>
<path d="M10.1296 21.6014L9.72715 22.0038C9.65345 22.0775 9.65345 22.1969 9.72715 22.2706C9.764 22.3075 9.81228 22.3259 9.86055 22.3259C9.90883 22.3259 9.9571 22.3075 9.99396 22.2706L10.3964 21.8682C10.4701 21.7945 10.4701 21.6751 10.3964 21.6014C10.3227 21.5277 10.2033 21.5277 10.1296 21.6014Z" fill="#C9A74E"/>
<path d="M21.7356 10.4543C21.7838 10.4543 21.8321 10.4359 21.869 10.3991L22.2714 9.99664C22.3451 9.92294 22.3451 9.80354 22.2714 9.72984C22.1977 9.65613 22.0783 9.65613 22.0046 9.72984L21.6022 10.1323C21.5284 10.206 21.5284 10.3254 21.6022 10.3991C21.639 10.4359 21.6873 10.4543 21.7356 10.4543Z" fill="#C9A74E"/>
<path d="M21.5385 12.65C21.2663 12.1797 20.2979 12.2371 19.9161 11.8553C19.5344 11.4736 19.5918 10.5051 19.1214 10.2329C18.6577 9.96462 17.8489 10.4957 17.3192 10.3541C16.8072 10.2173 16.3737 9.34888 15.8186 9.34888C15.2636 9.34888 14.83 10.2173 14.3182 10.3541C13.7885 10.4957 12.9797 9.96455 12.516 10.2328C12.0456 10.505 12.103 11.4734 11.7213 11.8552C11.3396 12.2369 10.3711 12.1795 10.0989 12.6499C9.83058 13.1136 10.3617 13.9224 10.2201 14.4521C10.0833 14.964 9.21484 15.3976 9.21484 15.9527C9.21484 16.5077 10.0833 16.9412 10.2201 17.4531C10.3617 17.9827 9.83054 18.7915 10.0988 19.2553C10.371 19.7256 11.3394 19.6682 11.7212 20.05C12.1029 20.4317 12.0454 21.4002 12.5159 21.6724C12.9796 21.9407 13.7884 21.4096 14.3181 21.5512C14.83 21.688 15.2635 22.5564 15.8186 22.5564C16.3736 22.5564 16.8072 21.688 17.3191 21.5512C17.8487 21.4096 18.6575 21.9408 19.1212 21.6725C19.5916 21.4003 19.5342 20.4318 19.9159 20.0501C20.2977 19.6684 21.2662 19.7258 21.5383 19.2554C21.8067 18.7917 21.2756 17.9829 21.4171 17.4532C21.554 16.9413 22.4224 16.5077 22.4224 15.9527C22.4224 15.3976 21.554 14.9641 21.4172 14.4522C21.2756 13.9225 21.8067 13.1138 21.5385 12.65ZM15.8185 19.8834C13.6512 19.8834 11.8879 18.1201 11.8879 15.9527C11.8879 13.7852 13.6512 12.0219 15.8185 12.0219C17.9861 12.0219 19.7494 13.7852 19.7494 15.9527C19.7494 18.1201 17.9861 19.8834 15.8185 19.8834Z" fill="#C9A74E"/>
<path d="M15.8188 12.3994C13.8594 12.3994 12.2656 13.9934 12.2656 15.9528C12.2656 17.9122 13.8594 19.5062 15.8188 19.5062C17.7782 19.5062 19.3724 17.9122 19.3724 15.9528C19.3724 13.9934 17.7782 12.3994 15.8188 12.3994ZM17.2435 15.1546L15.3803 17.0178C15.3435 17.0547 15.2952 17.0731 15.2469 17.0731C15.1986 17.0731 15.1504 17.0547 15.1135 17.0178L14.3942 16.2985C14.3205 16.2248 14.3205 16.1054 14.3942 16.0317C14.4679 15.958 14.5873 15.958 14.661 16.0317L15.2469 16.6176L16.9767 14.8878C17.0504 14.8141 17.1698 14.8141 17.2435 14.8878C17.3172 14.9615 17.3172 15.0809 17.2435 15.1546Z" fill="#C9A74E"/>
</svg>
