<svg width="32" height="32" viewBox="0 0 32 32" fill="none" xmlns="http://www.w3.org/2000/svg">
<rect width="32" height="32" rx="16" fill="black" fill-opacity="0.01"/>
<g clip-path="url(#clip0_14496_20170)">
<path d="M22.7402 17.556C22.2791 17.0949 21.5437 17.0637 21.0453 17.4874L18.054 20.0113C17.9232 20.1172 17.7549 20.1795 17.5866 20.1795H15.0877C14.7574 20.1795 14.4895 19.9116 14.4895 19.5813C14.4895 19.251 14.7574 18.9769 15.0877 18.9769H16.0038C16.7957 18.9769 17.3998 18.337 17.3872 17.5809C17.381 16.8269 16.7579 16.21 16.0038 16.21H12.863C12.6013 16.21 12.3521 16.3222 12.1714 16.5153L11.0621 17.7367C11.006 17.799 10.9187 17.8364 10.8315 17.8364H9.81574C9.31863 17.8364 8.88721 18.2309 8.88721 18.7712L8.8935 22.074C8.8935 22.585 9.31096 23.0025 9.82196 23.0025H18.1102C18.5214 23.0025 18.9202 22.8342 19.1944 22.5538L22.7402 19.332C23.2325 18.8397 23.2325 18.0483 22.7402 17.556Z" fill="#C9A74E"/>
<path d="M18.6601 14.4304C18.6584 14.4304 18.6564 14.4304 18.6546 14.4304C18.2578 14.4272 17.9085 14.1404 17.9119 13.7614C17.9142 13.4831 17.6902 13.2562 17.4122 13.2539C17.4107 13.2539 17.4096 13.2539 17.4081 13.2539C17.1318 13.2539 16.9067 13.4767 16.9043 13.7533C16.8981 14.5306 17.445 15.1579 18.1651 15.3615V15.6943C18.1651 15.9727 18.3907 16.1978 18.6688 16.1978C18.9469 16.1978 19.1726 15.9727 19.1726 15.6943V15.3563C19.885 15.1473 20.4101 14.5245 20.4162 13.7782C20.4237 12.8484 19.6396 12.1116 18.6949 12.0942C18.275 12.0959 17.9292 11.8014 17.9289 11.4299C17.9289 11.0635 18.2646 10.7649 18.6775 10.7649C19.0904 10.7649 19.4261 11.0635 19.4261 11.4299C19.4261 11.7082 19.6517 11.9333 19.9298 11.9333C20.2079 11.9333 20.4336 11.7082 20.4336 11.4299C20.4336 10.6758 19.903 10.0442 19.1813 9.83653V9.50103C19.1813 9.22267 18.9556 8.99756 18.6775 8.99756C18.3994 8.99756 18.1737 9.22267 18.1737 9.50103V9.83653C17.4519 10.0442 16.9214 10.6758 16.9214 11.4299C16.9214 12.3459 17.7001 13.0925 18.6607 13.1011H18.6659C19.066 13.1044 19.4121 13.3945 19.4087 13.7701C19.4058 14.1353 19.0707 14.4304 18.6601 14.4304Z" fill="#C9A74E"/>
</g>
<defs>
<clipPath id="clip0_14496_20170">
<rect width="16" height="16" fill="white" transform="translate(8 8)"/>
</clipPath>
</defs>
</svg>
