<svg width="32" height="32" viewBox="0 0 32 32" fill="none" xmlns="http://www.w3.org/2000/svg">
<rect width="32" height="32" rx="16" fill="black" fill-opacity="0.01"/>
<path d="M9.01379 14.4384C8.84045 14.265 8.84045 13.985 9.01379 13.8117L12.3693 10.4561C12.7649 10.0606 13.3738 9.9539 13.8805 10.1939L16.5293 11.4384C16.6938 11.5184 16.8982 11.4828 17.0316 11.3495L20.356 8.02502C20.5293 7.85168 20.8138 7.85168 20.9871 8.02502C21.1605 8.19834 21.1605 8.47834 20.9871 8.65168L17.6582 11.9806C17.2627 12.3761 16.6538 12.4828 16.1471 12.2428L13.5027 10.9984C13.3338 10.9183 13.1294 10.9539 12.996 11.0828L9.6449 14.4384C9.556 14.5272 9.44489 14.5672 9.32936 14.5672C9.2138 14.5672 9.10269 14.5272 9.01379 14.4384Z" fill="#C9A74E"/>
<path d="M14.4445 15.7053V21.2164C14.4445 21.7097 14.0445 22.1053 13.5556 22.1053H12.6667C12.1778 22.1053 11.7778 21.7097 11.7778 21.2164V15.7053C11.7778 15.2164 12.1778 14.8164 12.6667 14.8164H13.5556C14.0445 14.8164 14.4445 15.2164 14.4445 15.7053Z" fill="#C9A74E"/>
<path d="M22.0002 12.5852V21.2163C22.0002 21.7096 21.6002 22.1052 21.1113 22.1052H20.2224C19.7335 22.1052 19.3335 21.7096 19.3335 21.2163V12.5852C19.3335 12.0963 19.7335 11.6963 20.2224 11.6963H21.1113C21.6002 11.6963 22.0002 12.0963 22.0002 12.5852Z" fill="#C9A74E"/>
<path d="M10.6667 19.6784V21.2162C10.6667 21.7096 10.2667 22.1051 9.77778 22.1051H8.88889C8.40001 22.1051 8 21.7096 8 21.2162V19.6784C8 19.1896 8.40001 18.7896 8.88889 18.7896H9.77778C10.2667 18.7896 10.6667 19.1896 10.6667 19.6784Z" fill="#C9A74E"/>
<path d="M18.2223 17.2517V21.2161C18.2223 21.7095 17.8223 22.105 17.3334 22.105H16.4446C15.9557 22.105 15.5557 21.7095 15.5557 21.2161V17.2517C15.5557 16.7628 15.9557 16.3628 16.4446 16.3628H17.3334C17.8223 16.3628 18.2223 16.7628 18.2223 17.2517Z" fill="#C9A74E"/>
</svg>
